<svg width="450" height="445" xmlns="http://www.w3.org/2000/svg">
 <style type="text/css">.st0{fill:#BBECFF;}
	.st1{fill:#064959;}
	.st2{fill:#0E617A;}
	.st3{fill:#FFFFFF;}
	.st4{fill:none;stroke:#063E47;stroke-width:3.3928;stroke-miterlimit:10;}
	.st5{fill:none;stroke:#063E47;stroke-width:3.3928;stroke-linecap:round;stroke-linejoin:round;stroke-miterlimit:10;}</style>

 <g>
  <title>Layer 1</title>
  <g transform="rotate(-0.0249609 222.176 224.22)" stroke="null" id="Layer_2">
   <g stroke="null" id="XMLID_2_">
    <g stroke="null" id="XMLID_3_">
     <rect stroke="null" id="XMLID_4_" x="13.12792" y="200.3552" class="st1" width="20.20062" height="8.51685"/>
     <rect stroke="null" id="XMLID_8_" x="73.28372" y="200.3552" class="st1" width="20.20062" height="8.51685"/>
     <polygon stroke="null" id="XMLID_10_" class="st2" points="53.274279775097966,23.926284436136484 30.142333211377263,23.926284436136484 9.9416982550174,23.926284436136484 9.9416982550174,201.47893488779664 37.02455824799836,201.47893488779664 53.274279775097966,69.6452099122107 69.58772200532258,201.47893488779664 96.67057722993195,201.47893488779664 96.67057722993195,23.926284436136484 "/>
     <rect stroke="null" id="XMLID_5_" x="13.12792" y="23.92629" class="st3" width="2.8676" height="177.61181"/>
     <rect stroke="null" id="XMLID_6_" x="90.61675" y="23.92629" class="st3" width="2.8676" height="177.61181"/>
     <rect stroke="null" id="XMLID_7_" x="9.9417" y="13.81253" class="st1" width="86.79259" height="10.11376"/>
     <g stroke="null" id="XMLID_9_">
      <g stroke="null" id="XMLID_11_">
       <path stroke="null" id="XMLID_12_" class="st4" d="m53.27427,20.96905c0,4.37671 -4.46071,7.9254 -8.85769,10.11376c-4.33326,2.12921 -8.85769,-0.05914 -8.85769,-4.61329c0,-4.55415 6.37244,-9.22659 11.27921,-9.22659s6.43616,1.7152 6.43616,3.72612z"/>
       <path stroke="null" id="XMLID_13_" class="st4" d="m53.27427,20.96905c0,4.37671 4.46071,7.9254 8.85769,10.11376c4.33326,2.12921 8.85769,-0.05914 8.85769,-4.61329c0,-4.55415 -6.37244,-9.22659 -11.27921,-9.22659s-6.43616,1.7152 -6.43616,3.72612z"/>
      </g>
      <g stroke="null" id="XMLID_14_">
       <path stroke="null" id="XMLID_15_" class="st5" d="m46.58321,43.85808c0,-10.23205 6.69106,-20.28666 6.69106,-20.28666"/>
       <path stroke="null" id="XMLID_16_" class="st5" d="m60.02905,43.85808c0,-10.23205 -6.69106,-20.28666 -6.69106,-20.28666"/>
      </g>
     </g>
    </g>
    <g stroke="null" id="XMLID_17_">
     <polygon stroke="null" id="XMLID_28_" class="st2" points="222.1438285727054,23.926284436136484 199.01188582368195,23.926284436136484 178.74757307954133,23.926284436136484 178.74757307954133,208.87203181162477 205.8941490072757,208.87203181162477 222.1438285727054,69.6452099122107 238.39355391450226,208.87203181162477 265.5401145834476,208.87203181162477 265.5401145834476,23.926284436136484 "/>
     <path stroke="null" id="XMLID_29_" class="st3" d="m185.18371,208.87206l0,-86.3514c0,-0.76888 -0.63724,-1.36033 -1.46566,-1.36033c-0.82842,0 -1.46566,0.59145 -1.46566,1.36033l0,86.3514l2.93132,0z"/>
     <path stroke="null" id="XMLID_31_" class="st3" d="m191.6836,208.87206l0,-86.3514c0,-0.76888 -0.63724,-1.36033 -1.46566,-1.36033c-0.82842,0 -1.46566,0.59145 -1.46566,1.36033l0,86.3514l2.93132,0z"/>
     <rect stroke="null" id="XMLID_25_" x="178.74755" y="13.81253" class="st1" width="86.79259" height="10.11376"/>
     <g stroke="null" id="XMLID_18_">
      <g stroke="null" id="XMLID_22_">
       <path stroke="null" id="XMLID_24_" class="st4" d="m222.14385,20.96905c0,4.37671 -4.46071,7.9254 -8.85769,10.11376c-4.33326,2.12921 -8.85769,-0.05914 -8.85769,-4.61329c0,-4.55415 6.37244,-9.22659 11.27921,-9.22659c4.90678,0.05914 6.43616,1.7152 6.43616,3.72612z"/>
       <path stroke="null" id="XMLID_23_" class="st4" d="m222.14385,20.96905c0,4.37671 4.46071,7.9254 8.85769,10.11376c4.33326,2.12921 8.85769,-0.05914 8.85769,-4.61329c0,-4.55415 -6.37244,-9.22659 -11.27921,-9.22659s-6.43616,1.7152 -6.43616,3.72612z"/>
      </g>
      <g stroke="null" id="XMLID_19_">
       <path stroke="null" id="XMLID_21_" class="st5" d="m215.45279,43.85808c0,-10.23205 6.69106,-20.28666 6.69106,-20.28666"/>
       <path stroke="null" id="XMLID_20_" class="st5" d="m228.8349,43.85808c0,-10.23205 -6.69106,-20.28666 -6.69106,-20.28666"/>
      </g>
     </g>
    </g>
    <g stroke="null" id="XMLID_26_">
     <polygon stroke="null" id="XMLID_40_" class="st2" points="391.0133811850101,23.926284436136484 367.8177329916507,23.926284436136484 347.6171409506351,23.926284436136484 347.6171409506351,208.87203181162477 374.69999617524445,208.87203181162477 391.0133811850101,69.6452099122107 407.2631370443851,208.87203181162477 434.3459617514163,208.87203181162477 434.3459617514163,23.926284436136484 "/>
     <polygon stroke="null" id="XMLID_27_" class="st1" points="374.69999617524445,208.87203181162477 362.9746848959476,208.87203181162477 372.66081160493195,133.99475825205445 384.1948997396976,127.78454554453492 "/>
     <polygon stroke="null" id="XMLID_34_" class="st1" points="407.3267967123538,209.40433466807008 419.1158592123538,209.40433466807008 409.3660423178226,134.52706110849977 397.8319236654788,128.25769770517945 "/>
     <rect stroke="null" id="XMLID_37_" x="347.61713" y="13.81253" class="st1" width="86.79259" height="10.11376"/>
     <g stroke="null" id="XMLID_30_">
      <line stroke="null" id="XMLID_32_" class="st5" x1="379.47931" y1="18.89898" x2="379.47931" y2="46.69703"/>
      <line stroke="null" id="XMLID_33_" class="st5" x1="402.48381" y1="18.89898" x2="402.48381" y2="46.69703"/>
     </g>
    </g>
    <g stroke="null" id="XMLID_57_">
     <rect stroke="null" id="XMLID_70_" x="13.12792" y="426.11088" class="st1" width="20.20062" height="8.51685"/>
     <rect stroke="null" id="XMLID_69_" x="73.28372" y="426.11088" class="st1" width="20.20062" height="8.51685"/>
     <polygon stroke="null" id="XMLID_68_" class="st2" points="53.274279775097966,249.6819530762732 30.142333211377263,249.6819530762732 9.9416982550174,249.6819530762732 9.9416982550174,427.234641674906 37.02455824799836,427.234641674906 53.274279775097966,295.400901440531 69.58772200532258,427.234641674906 96.67057722993195,427.234641674906 96.67057722993195,249.6819530762732 "/>
     <rect stroke="null" id="XMLID_65_" x="9.9417" y="239.5682" class="st1" width="86.79259" height="10.11376"/>
     <g stroke="null" id="XMLID_58_">
      <g stroke="null" id="XMLID_62_">
       <path stroke="null" id="XMLID_64_" class="st4" d="m53.27427,246.72472c0,4.37671 -4.46071,7.9254 -8.85769,10.11376c-4.33326,2.12921 -8.85769,-0.05914 -8.85769,-4.61329s6.37244,-9.22659 11.27921,-9.22659s6.43616,1.7152 6.43616,3.72612z"/>
       <path stroke="null" id="XMLID_63_" class="st4" d="m53.27427,246.72472c0,4.37671 4.46071,7.9254 8.85769,10.11376c4.33326,2.12921 8.85769,-0.05914 8.85769,-4.61329s-6.37244,-9.22659 -11.27921,-9.22659s-6.43616,1.7152 -6.43616,3.72612z"/>
      </g>
      <g stroke="null" id="XMLID_59_">
       <path stroke="null" id="XMLID_61_" class="st5" d="m46.58321,269.61376c0,-10.23205 6.69106,-20.28666 6.69106,-20.28666"/>
       <path stroke="null" id="XMLID_60_" class="st5" d="m60.02905,269.61376c0,-10.23205 -6.75478,-20.28666 -6.75478,-20.28666"/>
      </g>
     </g>
    </g>
    <g stroke="null" id="XMLID_45_">
     <polygon stroke="null" id="XMLID_56_" class="st2" points="222.1438285727054,249.6819530762732 199.01188582368195,249.6819530762732 178.74757307954133,249.6819530762732 178.74757307954133,434.62776911631227 205.8941490072757,434.62776911631227 222.1438285727054,295.400901440531 238.39355391450226,434.62776911631227 265.5401145834476,434.62776911631227 265.5401145834476,249.6819530762732 "/>
     <polygon stroke="null" id="XMLID_55_" class="st3" points="265.5401145834476,249.32707941904664 178.74757307954133,249.32707941904664 178.74757307954133,258.55364191904664 265.5401145834476,277.53911555185914 "/>
     <rect stroke="null" id="XMLID_53_" x="178.74755" y="239.5682" class="st1" width="86.79259" height="10.11376"/>
     <g stroke="null" id="XMLID_47_">
      <line stroke="null" id="XMLID_49_" class="st5" x1="210.67346" y1="244.59551" x2="210.67346" y2="272.45271"/>
      <line stroke="null" id="XMLID_48_" class="st5" x1="233.61423" y1="244.59551" x2="233.61423" y2="272.45271"/>
     </g>
    </g>
    <g stroke="null" id="XMLID_35_">
     <polygon stroke="null" id="XMLID_52_" class="st2" points="388.9105369467288,313.2034832276404 391.0133811850101,295.400901440531 393.0525962729007,313.2034832276404 434.3459617514163,313.2034832276404 434.3459617514163,249.6819530762732 347.6171409506351,249.6819530762732 347.6171409506351,313.2034832276404 "/>
     <path stroke="null" id="XMLID_42_" class="st3" d="m423.70402,265.47362l-9.74983,0c-1.65683,0 -2.99505,-1.24204 -2.99505,-2.77981l0,0c0,-1.53776 1.33821,-2.77981 2.99505,-2.77981l9.74983,0c1.65683,0 2.99505,1.24204 2.99505,2.77981l0,0c0,1.53776 -1.33821,2.77981 -2.99505,2.77981z"/>
     <rect stroke="null" id="XMLID_41_" x="347.61713" y="239.5682" class="st1" width="86.79259" height="10.11376"/>
     <g stroke="null" id="XMLID_36_">
      <line stroke="null" id="XMLID_39_" class="st5" x1="379.47931" y1="244.59551" x2="379.47931" y2="272.45271"/>
      <line stroke="null" id="XMLID_38_" class="st5" x1="402.48381" y1="244.59551" x2="402.48381" y2="272.45271"/>
     </g>
    </g>
    <g stroke="null" id="XMLID_44_">
     <polygon stroke="null" id="XMLID_73_" class="st1" points="347.6171409506351,434.62776911631227 388.14579695649445,434.62776911631227 389.1016990561038,426.11092341318727 347.6171409506351,426.11092341318727 "/>
     <polygon stroke="null" id="XMLID_74_" class="st1" points="434.3459617514163,434.62776911631227 393.8173362631351,434.62776911631227 392.8614341635257,426.11092341318727 434.3459617514163,426.11092341318727 "/>
     <polygon stroke="null" id="XMLID_72_" class="st2" points="388.9105369467288,428.06267512217164 391.0133811850101,410.26006281748414 393.0525962729007,428.06267512217164 434.3459617514163,428.06267512217164 434.3459617514163,364.5411297120154 347.6171409506351,364.5411297120154 347.6171409506351,428.06267512217164 "/>
     <rect stroke="null" id="XMLID_82_" x="347.61713" y="354.42739" class="st1" width="86.79259" height="10.11376"/>
     <g stroke="null" id="XMLID_71_">
      <g stroke="null" id="XMLID_79_">
       <path stroke="null" id="XMLID_81_" class="st4" d="m391.01342,361.58391c0,4.37671 -4.46071,7.9254 -8.85769,10.11376c-4.33326,2.12921 -8.85769,-0.05914 -8.85769,-4.61329c0,-4.55415 6.37244,-9.22659 11.27921,-9.22659s6.43616,1.7152 6.43616,3.72612z"/>
       <path stroke="null" id="XMLID_80_" class="st4" d="m391.01342,361.58391c0,4.37671 4.46071,7.9254 8.85769,10.11376c4.33326,2.12921 8.85769,-0.05914 8.85769,-4.61329c0,-4.55415 -6.37244,-9.22659 -11.27921,-9.22659s-6.43616,1.7152 -6.43616,3.72612z"/>
      </g>
      <g stroke="null" id="XMLID_76_">
       <path stroke="null" id="XMLID_78_" class="st5" d="m384.25864,384.47295c0,-10.23205 6.69106,-20.28666 6.69106,-20.28666"/>
       <path stroke="null" id="XMLID_77_" class="st5" d="m397.70448,384.47295c0,-10.23205 -6.69106,-20.28666 -6.69106,-20.28666"/>
      </g>
     </g>
    </g>
   </g>
   <g stroke="null" id="XMLID_66_">
    <path stroke="null" id="XMLID_67_" class="st1" d="m9.9417,269.31803l7.77437,0c3.50484,0 6.37244,-2.66152 6.37244,-5.91448l0,-19.22206l-14.14681,0l0,25.13654z"/>
    <path stroke="null" id="XMLID_75_" class="st1" d="m82.58748,244.1815l0,19.22206c0,3.25296 2.8676,5.91448 6.37244,5.91448l7.77437,0l0,-25.13654l-14.14681,0z"/>
   </g>
  </g>
  <polyline fill="none" stroke="#000" points="227.8604844720453,298.7872503905429 227.8604844720453,298.7872503905429 " id="svg_1" stroke-linecap="round"/>
  <path fill="#ffffff" stroke="#000" opacity="NaN" d="m364.60312,419.06064" id="svg_5"/>
 </g>
</svg>